<?xml version="1.0" encoding="utf-8"?>
<!-- Generator: Adobe Illustrator 24.0.2, SVG Export Plug-In . SVG Version: 6.00 Build 0)  -->
<svg version="1.1" xmlns="http://www.w3.org/2000/svg" xmlns:xlink="http://www.w3.org/1999/xlink" x="0px" y="0px"
	 viewBox="0 0 500 500" style="enable-background:new 0 0 500 500;" xml:space="preserve">
<style type="text/css">
	.st0{fill:#F7E8A9;}
	.st1{clip-path:url(#SVGID_2_);}
	.st2{fill:#1F7C64;}
	.st3{fill:#40A892;}
	.st4{fill:#7CC4AC;}
	.st5{fill:#3F1220;}
	.st6{fill:#6BC1AA;}
	.st7{fill:#FF9E7C;}
	.st8{fill:#F78B6B;}
	.st9{fill:#AD5E45;}
	.st10{fill:#FFDE59;}
	.st11{fill:#75C6AF;}
	.st12{fill:#F9E178;}
	.st13{fill:#FF9D7A;}
	.st14{fill:#F7A81C;}
	.st15{display:none;}
	.st16{display:inline;}
	.st17{fill:#E82E99;}
	.st18{font-family:'Playball-Regular';}
	.st19{font-size:37.7684px;}
	.st20{fill:#FF77BA;}
	.st21{font-family:'Montserrat-Medium';}
	.st22{font-size:10.6222px;}
	.st23{letter-spacing:2;}
</style>
<g id="BACKGROUND">
</g>
<g id="OBJECTS">
	<path class="st0" d="M250.39,86.78c0,0,27.4,6.07,53.56-18.21c26.15-24.28,63.49-18.18,63.03,23.85s50.69,29.03,62.83,81.92
		c12.14,52.89-34.68,63.37-37.28,99.75c-2.6,36.37,48.31,55.38,21.43,101.83c-28.8,49.78-106.64-1.73-154.33-3.47
		c-44.87-1.63-75,14.33-114.01,9.54c-39.02-4.79-67.67-44.87-30.54-103.55c37.13-58.69-12.14-78.68-16.47-113.93
		s13.42-50.29,50.04-45.49C210,127.93,195.39,59.9,250.39,86.78z"/>
	<g>
		<defs>
			<path id="SVGID_1_" d="M258.48,42.6c0,0,124.99,13.45,155.42,58.38c30.92,45.66,39.59,163.33,36.99,199.7
				c-2.6,36.37-8.72,50.79-35.59,97.25c-28.8,49.78-106.64-1.73-154.33-3.47c-44.87-1.63-75,14.33-114.01,9.54
				c-39.02-4.79-101.14-115.26-90.89-183.95c13.01-87.13-12.28-52.31,14.16-126.87C82.1,59.7,150.39,35.4,258.48,42.6z"/>
		</defs>
		<clipPath id="SVGID_2_">
			<use xlink:href="#SVGID_1_"  style="overflow:visible;"/>
		</clipPath>
		<g class="st1">
			<g>
				<path class="st2" d="M193.82,279.49l-1.73-0.06c0.01-0.17,0.43-17.06-9.97-43.49c-9.61-24.4-30.68-62.16-76.51-103.43l1.16-1.29
					c46.13,41.54,67.34,79.6,77.01,104.2C194.27,262.16,193.82,279.32,193.82,279.49z"/>
			</g>
			<g>
				<g>
					<path class="st2" d="M113.56,138.68c0,0-31.74-12.08-29.13-24.16C87.03,102.43,111.25,127.16,113.56,138.68z"/>
				</g>
				<g>
					<g>
						<path class="st2" d="M127.88,153.45c0,0-12.41-31.62-1.71-37.81C136.87,109.45,134.85,144,127.88,153.45z"/>
					</g>
					<g>
						<path class="st2" d="M130.21,155.76c0,0-33.09,7.66-37.66-3.82C87.98,140.45,121.87,147.49,130.21,155.76z"/>
					</g>
				</g>
				<g>
					<g>
						<path class="st2" d="M146.23,174.02c0,0-12.41-31.62-1.71-37.81C155.22,130.01,153.2,164.57,146.23,174.02z"/>
					</g>
					<g>
						<path class="st2" d="M148.56,176.32c0,0-33.09,7.66-37.66-3.82C106.34,161.01,140.23,168.05,148.56,176.32z"/>
					</g>
				</g>
				<g>
					<g>
						<path class="st2" d="M162.58,196.6c0,0-12.41-31.62-1.71-37.81C171.57,152.59,169.55,187.14,162.58,196.6z"/>
					</g>
					<g>
						<path class="st2" d="M164.91,198.9c0,0-33.09,7.66-37.66-3.82C122.69,183.59,156.58,190.63,164.91,198.9z"/>
					</g>
				</g>
				<g>
					<g>
						<path class="st2" d="M175.26,218.58c0,0-7.85-33.04,3.61-37.68C190.33,176.27,183.49,210.2,175.26,218.58z"/>
					</g>
					<g>
						<path class="st2" d="M177.25,221.19c0,0-33.83,2.95-36.75-9.06C137.59,200.11,170.16,211.83,177.25,221.19z"/>
					</g>
				</g>
			</g>
		</g>
		<g class="st1">
			<g>
				<g>
					<path class="st2" d="M304.93,410.48l-0.37-1.7c0.16-0.04,16.65-3.76,39.72-20.33c21.3-15.3,52.74-44.99,81.51-99.53l1.53,0.81
						c-28.97,54.91-60.66,84.8-82.14,100.2C321.85,406.67,305.1,410.44,304.93,410.48z"/>
				</g>
			</g>
			<g>
				<g>
					<g>
						<path class="st2" d="M421.77,298.14c0,0,3.93-33.74,16.28-34.17C450.41,263.54,432.37,293.08,421.77,298.14z"/>
					</g>
				</g>
				<g>
					<g>
						<g>
							<path class="st2" d="M410.96,315.65c0,0,27.61-19.78,36.24-10.93C455.82,313.57,421.83,320.09,410.96,315.65z"/>
						</g>
					</g>
					<g>
						<g>
							<path class="st2" d="M409.3,318.48c0,0-15.54-30.2-5.53-37.44C413.79,273.79,415.27,308.37,409.3,318.48z"/>
						</g>
					</g>
				</g>
				<g>
					<g>
						<g>
							<path class="st2" d="M395.52,338.48c0,0,27.61-19.78,36.24-10.93C440.39,336.41,406.39,342.92,395.52,338.48z"/>
						</g>
					</g>
					<g>
						<g>
							<path class="st2" d="M393.86,341.31c0,0-15.54-30.2-5.53-37.44C398.35,296.62,399.84,331.2,393.86,341.31z"/>
						</g>
					</g>
				</g>
				<g>
					<g>
						<g>
							<path class="st2" d="M377.64,359.87c0,0,27.61-19.78,36.24-10.93C422.51,357.79,388.51,364.31,377.64,359.87z"/>
						</g>
					</g>
					<g>
						<g>
							<path class="st2" d="M375.98,362.7c0,0-15.54-30.2-5.53-37.44C380.47,318.01,381.95,352.59,375.98,362.7z"/>
						</g>
					</g>
				</g>
				<g>
					<g>
						<g>
							<path class="st2" d="M359.44,377.56c0,0,30.11-15.71,37.41-5.74C404.15,381.79,369.58,383.48,359.44,377.56z"/>
						</g>
					</g>
					<g>
						<g>
							<path class="st2" d="M357.4,380.12c0,0-11.16-32.08-0.22-37.85C368.11,336.5,364.73,370.95,357.4,380.12z"/>
						</g>
					</g>
				</g>
			</g>
		</g>
		<g class="st1">
			<g>
				<path class="st3" d="M189.2,307.27c0,0-50.04-0.78-69.21-43.15c-13.06-28.88-34.47-59.76-56.14-65.96
					c45.16-1.86,70.72,2.6,101.18,32.67C195.5,260.9,189.2,307.27,189.2,307.27z"/>
			</g>
			<g>
				<g>
					<path class="st4" d="M189.2,307.96c-0.14,0-0.28-0.04-0.4-0.13c-0.24-0.17-23.81-17.37-48.64-60.75
						c-24.57-42.92-57.95-44.46-58.29-44.47c-0.38-0.01-0.69-0.33-0.67-0.72c0.01-0.38,0.33-0.69,0.72-0.67
						c0.34,0.01,34.5,1.58,59.45,45.17c24.69,43.13,48.02,60.15,48.25,60.32c0.31,0.22,0.38,0.66,0.16,0.97
						C189.63,307.86,189.41,307.96,189.2,307.96z"/>
				</g>
				<g>
					<path class="st4" d="M114.38,216.38c-0.34,0-0.63-0.25-0.69-0.59l-2.1-13.65c-0.06-0.38,0.2-0.73,0.58-0.79
						c0.38-0.06,0.73,0.2,0.79,0.58l2.1,13.65c0.06,0.38-0.2,0.73-0.58,0.79C114.45,216.37,114.41,216.38,114.38,216.38z"/>
				</g>
				<g>
					<path class="st4" d="M102.9,229.04c-0.37,0-0.68-0.29-0.69-0.67c-0.01-0.38,0.28-0.71,0.67-0.72l24.1-0.92
						c0.38-0.01,0.71,0.28,0.72,0.67c0.01,0.38-0.28,0.71-0.67,0.72l-24.1,0.92C102.91,229.04,102.9,229.04,102.9,229.04z"/>
				</g>
				<g>
					<path class="st4" d="M140.75,247.43c-0.03,0-0.05,0-0.08-0.01c-0.38-0.05-0.65-0.39-0.61-0.77l3.48-29.25
						c0.05-0.38,0.39-0.65,0.77-0.61c0.38,0.05,0.65,0.39,0.61,0.77l-3.48,29.25C141.4,247.17,141.1,247.43,140.75,247.43z"/>
				</g>
				<g>
					<path class="st4" d="M148.37,260.03c-0.02,0-0.04,0-0.06,0l-29.6-2.58c-0.38-0.03-0.67-0.37-0.63-0.75
						c0.03-0.38,0.37-0.68,0.75-0.63l29.6,2.58c0.38,0.03,0.67,0.37,0.63,0.75C149.03,259.75,148.72,260.03,148.37,260.03z"/>
				</g>
				<g>
					<path class="st4" d="M159.48,276.14c-0.04,0-0.07,0-0.11-0.01c-0.38-0.06-0.64-0.41-0.58-0.79l5.91-37.87
						c0.06-0.38,0.41-0.64,0.79-0.58c0.38,0.06,0.64,0.41,0.58,0.79l-5.91,37.87C160.11,275.89,159.81,276.14,159.48,276.14z"/>
				</g>
				<g>
					<path class="st4" d="M166.1,284.61c0,0-0.01,0-0.01,0l-28.96-0.48c-0.38-0.01-0.69-0.32-0.68-0.71
						c0.01-0.38,0.32-0.68,0.69-0.68c0,0,0.01,0,0.01,0l28.96,0.48c0.38,0.01,0.69,0.32,0.68,0.71
						C166.78,284.3,166.47,284.61,166.1,284.61z"/>
				</g>
				<g>
					<path class="st4" d="M176.12,295.96c-0.05,0-0.1-0.01-0.15-0.02c-0.38-0.08-0.61-0.45-0.53-0.83l5.71-26.42
						c0.08-0.38,0.45-0.62,0.83-0.53c0.38,0.08,0.61,0.45,0.53,0.83l-5.71,26.42C176.73,295.74,176.44,295.96,176.12,295.96z"/>
				</g>
			</g>
		</g>
		<g class="st1">
			<g>
				<path class="st3" d="M306.33,278.78c0,0,50.01,1.81,71.35-39.51c14.54-28.16,37.51-57.9,59.47-62.97
					c-45-4.19-70.76-1.06-102.74,27.4S306.33,278.78,306.33,278.78z"/>
			</g>
			<g>
				<g>
					<path class="st4" d="M306.33,279.48c-0.23,0-0.45-0.11-0.58-0.32c-0.21-0.32-0.11-0.75,0.21-0.96
						c0.24-0.15,24.44-15.98,51.3-57.74c27.16-42.23,61.34-42.04,61.71-42.03c0.38,0.01,0.69,0.33,0.68,0.71
						c-0.01,0.38-0.37,0.69-0.71,0.68c-0.01,0-0.02,0-0.04,0c-1.37,0-34.17,0.52-60.47,41.4c-27.04,42.04-51.48,58-51.72,58.16
						C306.59,279.44,306.46,279.48,306.33,279.48z"/>
				</g>
				<g>
					<path class="st4" d="M385.78,191.88c-0.05,0-0.09,0-0.14-0.01c-0.38-0.08-0.62-0.45-0.54-0.82l2.8-13.52
						c0.08-0.38,0.44-0.62,0.82-0.54c0.38,0.08,0.62,0.45,0.54,0.82l-2.8,13.53C386.39,191.65,386.11,191.88,385.78,191.88z"/>
				</g>
				<g>
					<path class="st4" d="M396.59,205.11c-0.02,0-0.04,0-0.06,0l-24.02-2.16c-0.38-0.03-0.66-0.37-0.63-0.75
						c0.03-0.38,0.38-0.66,0.75-0.63l24.02,2.16c0.38,0.03,0.66,0.37,0.63,0.75C397.25,204.84,396.95,205.11,396.59,205.11z"/>
				</g>
				<g>
					<path class="st4" d="M357.84,221.52c-0.36,0-0.67-0.28-0.69-0.65l-1.97-29.39c-0.03-0.38,0.26-0.71,0.65-0.74
						c0.39-0.02,0.71,0.26,0.74,0.65l1.97,29.39c0.03,0.38-0.26,0.71-0.65,0.74C357.87,221.52,357.85,221.52,357.84,221.52z"/>
				</g>
				<g>
					<path class="st4" d="M349.58,233.71c-0.37,0-0.68-0.3-0.69-0.67c-0.01-0.38,0.29-0.71,0.67-0.72l29.69-1.05
						c0.37-0.02,0.71,0.29,0.72,0.67c0.01,0.38-0.29,0.71-0.67,0.72l-29.69,1.05C349.6,233.71,349.59,233.71,349.58,233.71z"/>
				</g>
				<g>
					<path class="st4" d="M337.65,249.23c-0.35,0-0.65-0.27-0.69-0.62l-3.95-38.13c-0.04-0.38,0.24-0.72,0.62-0.76
						c0.38-0.04,0.72,0.24,0.76,0.62l3.95,38.13c0.04,0.38-0.24,0.72-0.62,0.76C337.7,249.23,337.68,249.23,337.65,249.23z"/>
				</g>
				<g>
					<path class="st4" d="M359.56,258.37c-0.01,0-0.02,0-0.03,0l-28.95-1.02c-0.38-0.01-0.68-0.34-0.67-0.72
						c0.01-0.38,0.32-0.68,0.72-0.67l28.95,1.02c0.38,0.01,0.68,0.34,0.67,0.72C360.24,258.07,359.93,258.37,359.56,258.37z"/>
				</g>
				<g>
					<path class="st4" d="M320.01,268.17c-0.33,0-0.63-0.24-0.68-0.58l-4.34-26.68c-0.06-0.38,0.2-0.74,0.57-0.8
						c0.38-0.06,0.73,0.2,0.8,0.57l4.34,26.68c0.06,0.38-0.2,0.74-0.57,0.8C320.08,268.17,320.04,268.17,320.01,268.17z"/>
				</g>
			</g>
		</g>
		<g class="st1">
			<g>
				<g>
					<path class="st4" d="M182.27,345.3l-1.16,0.41c-0.04-0.11-4.1-11.35-17.74-26.08c-12.6-13.61-36.17-33.06-76.95-48.48
						l0.43-1.15c41.05,15.52,64.79,35.13,77.48,48.86C178.11,333.76,182.23,345.18,182.27,345.3z"/>
				</g>
			</g>
			<g>
				<g>
					<g>
						<path class="st4" d="M93.24,273.16c0,0-24.01,0.2-25.39-8.43C66.46,256.1,88.76,266.17,93.24,273.16z"/>
					</g>
				</g>
				<g>
					<g>
						<g>
							<path class="st4" d="M106.47,279.22c0,0-16.29-17.64-10.84-24.47C101.09,247.92,108.63,271.2,106.47,279.22z"/>
						</g>
					</g>
					<g>
						<g>
							<path class="st4" d="M108.6,280.13c0,0-19.82,13.54-25.78,7.15C76.85,280.89,100.98,276.83,108.6,280.13z"/>
						</g>
					</g>
				</g>
				<g>
					<g>
						<g>
							<path class="st4" d="M123.84,288.05c0,0-16.29-17.64-10.84-24.47C118.46,256.75,126,280.03,123.84,288.05z"/>
						</g>
					</g>
					<g>
						<g>
							<path class="st4" d="M125.96,288.97c0,0-19.82,13.54-25.78,7.15C94.22,289.72,118.35,285.66,125.96,288.97z"/>
						</g>
					</g>
				</g>
				<g>
					<g>
						<g>
							<path class="st4" d="M140.4,298.72c0,0-16.29-17.64-10.84-24.47C135.02,267.43,142.57,290.71,140.4,298.72z"/>
						</g>
					</g>
					<g>
						<g>
							<path class="st4" d="M142.53,299.64c0,0-19.82,13.54-25.78,7.15C110.79,300.4,134.92,296.33,142.53,299.64z"/>
						</g>
					</g>
				</g>
				<g>
					<g>
						<g>
							<path class="st4" d="M154.4,309.94c0,0-13.66-19.75-7.3-25.74S157.67,302.31,154.4,309.94z"/>
						</g>
					</g>
					<g>
						<g>
							<path class="st4" d="M156.38,311.15c0,0-21.53,10.63-26.53,3.47C124.85,307.45,149.31,306.81,156.38,311.15z"/>
						</g>
					</g>
				</g>
			</g>
		</g>
		<g class="st1">
			<g>
				<g>
					<path class="st4" d="M345.68,324.1l1.21,0.17c0.02-0.12,1.73-11.94,12.14-29.11c9.61-15.86,28.8-39.65,65.65-62.94l-0.66-1.04
						c-37.1,23.44-56.42,47.43-66.09,63.42C347.44,311.96,345.7,323.98,345.68,324.1z"/>
				</g>
			</g>
			<g>
				<g>
					<g>
						<path class="st4" d="M418.41,235.55c0,0,23.56-4.63,23.18-13.36C441.22,213.46,421.4,227.81,418.41,235.55z"/>
					</g>
				</g>
				<g>
					<g>
						<g>
							<path class="st4" d="M406.67,244.14c0,0,12.42-20.55,5.7-26.14C405.66,212.4,402.94,236.72,406.67,244.14z"/>
						</g>
					</g>
					<g>
						<g>
							<path class="st4" d="M404.77,245.47c0,0,22.14,9.29,26.7,1.83C436.02,239.84,411.57,240.7,404.77,245.47z"/>
						</g>
					</g>
				</g>
				<g>
					<g>
						<g>
							<path class="st4" d="M391.43,256.28c0,0,12.42-20.55,5.7-26.14C390.42,224.54,387.7,248.86,391.43,256.28z"/>
						</g>
					</g>
					<g>
						<g>
							<path class="st4" d="M389.53,257.61c0,0,22.14,9.29,26.7,1.83C420.78,251.98,396.32,252.84,389.53,257.61z"/>
						</g>
					</g>
				</g>
				<g>
					<g>
						<g>
							<path class="st4" d="M377.34,270.06c0,0,12.42-20.55,5.7-26.14C376.33,238.33,373.61,262.64,377.34,270.06z"/>
						</g>
					</g>
					<g>
						<g>
							<path class="st4" d="M375.44,271.39c0,0,22.14,9.29,26.7,1.83C406.69,265.76,382.24,266.62,375.44,271.39z"/>
						</g>
					</g>
				</g>
				<g>
					<g>
						<g>
							<path class="st4" d="M365.88,283.87c0,0,9.41-22.09,1.98-26.68C360.43,252.59,361.15,277.04,365.88,283.87z"/>
						</g>
					</g>
					<g>
						<g>
							<path class="st4" d="M364.18,285.45c0,0,23.22,6.09,26.69-1.93C394.34,275.49,370.24,279.77,364.18,285.45z"/>
						</g>
					</g>
				</g>
			</g>
		</g>
		<g class="st1">
			<g>
				<g>
					<path class="st4" d="M311.49,235.01l0.86-0.18c-0.02-0.08-1.72-8.47,1.13-22.57c2.64-13.02,9.81-33.71,29.03-58.34l-0.69-0.54
						c-19.34,24.79-26.56,45.64-29.21,58.77C309.74,226.4,311.48,234.92,311.49,235.01z"/>
				</g>
			</g>
			<g>
				<g>
					<g>
						<path class="st4" d="M339.09,157.69c0,0,14.77-8.83,12.4-14.62C349.12,137.27,339.23,151.75,339.09,157.69z"/>
					</g>
				</g>
				<g>
					<g>
						<g>
							<path class="st4" d="M333.25,166.33c0,0,3.4-16.86-2.49-19.01C324.88,145.17,328.94,162.23,333.25,166.33z"/>
						</g>
					</g>
					<g>
						<g>
							<path class="st4" d="M332.29,167.68c0,0,17.18,0.9,18.44-5.23C352,156.32,335.72,162.82,332.29,167.68z"/>
						</g>
					</g>
				</g>
				<g>
					<g>
						<g>
							<path class="st4" d="M325.92,178.2c0,0,3.4-16.86-2.49-19.01C317.55,157.05,321.61,174.1,325.92,178.2z"/>
						</g>
					</g>
					<g>
						<g>
							<path class="st4" d="M324.96,179.56c0,0,17.18,0.9,18.44-5.23C344.66,168.19,328.38,174.7,324.96,179.56z"/>
						</g>
					</g>
				</g>
				<g>
					<g>
						<g>
							<path class="st4" d="M319.76,190.91c0,0,3.4-16.86-2.49-19.01C311.39,169.75,315.45,186.81,319.76,190.91z"/>
						</g>
					</g>
					<g>
						<g>
							<path class="st4" d="M318.79,192.26c0,0,17.18,0.9,18.44-5.23C338.5,180.9,322.22,187.4,318.79,192.26z"/>
						</g>
					</g>
				</g>
				<g>
					<g>
						<g>
							<path class="st4" d="M315.37,202.99c0,0,1-17.17-5.13-18.47C304.12,183.22,310.53,199.54,315.37,202.99z"/>
						</g>
					</g>
					<g>
						<g>
							<path class="st4" d="M314.61,204.47c0,0,17.14-1.52,17.53-7.76C332.53,190.45,317.32,199.17,314.61,204.47z"/>
						</g>
					</g>
				</g>
			</g>
		</g>
		<g class="st1">
			<g>
				<g>
					<path class="st4" d="M320.58,428.81l0.74,0.47c0.05-0.07,4.68-7.27,16.58-15.36c10.98-7.48,30.57-17.27,61.52-21.48l-0.12-0.87
						c-31.16,4.24-50.88,14.12-61.95,21.66C325.33,421.42,320.63,428.73,320.58,428.81z"/>
				</g>
			</g>
			<g>
				<g>
					<g>
						<path class="st4" d="M394.33,392.75c0,0,16.73,4,19.09-1.81C415.77,385.14,398.58,388.59,394.33,392.75z"/>
					</g>
				</g>
				<g>
					<g>
						<g>
							<path class="st4" d="M384.12,394.85c0,0,14.21-9.7,11.5-15.34C392.91,373.87,383.9,388.91,384.12,394.85z"/>
						</g>
					</g>
					<g>
						<g>
							<path class="st4" d="M382.49,395.15c0,0,11.66,12.64,16.85,9.14S388.34,394.06,382.49,395.15z"/>
						</g>
					</g>
				</g>
				<g>
					<g>
						<g>
							<path class="st4" d="M370.58,398.23c0,0,14.21-9.7,11.5-15.34C379.36,377.24,370.36,392.28,370.58,398.23z"/>
						</g>
					</g>
					<g>
						<g>
							<path class="st4" d="M368.94,398.52c0,0,11.66,12.64,16.85,9.14C390.99,404.16,374.79,397.44,368.94,398.52z"/>
						</g>
					</g>
				</g>
				<g>
					<g>
						<g>
							<path class="st4" d="M357.3,403.01c0,0,14.21-9.7,11.5-15.34C366.08,382.03,357.07,397.07,357.3,403.01z"/>
						</g>
					</g>
					<g>
						<g>
							<path class="st4" d="M355.66,403.31c0,0,11.66,12.64,16.85,9.14C377.7,408.95,361.51,402.23,355.66,403.31z"/>
						</g>
					</g>
				</g>
				<g>
					<g>
						<g>
							<path class="st4" d="M345.72,408.6c0,0,12.71-11.59,9.23-16.8C351.47,386.59,344.66,402.75,345.72,408.6z"/>
						</g>
					</g>
					<g>
						<g>
							<path class="st4" d="M344.14,409.12c0,0,13.32,10.88,17.97,6.69C366.75,411.61,349.78,407.23,344.14,409.12z"/>
						</g>
					</g>
				</g>
			</g>
		</g>
		<g class="st1">
			<g>
				<g>
					<path class="st4" d="M215.14,220.53l-1.03-0.22c0.02-0.1,2.05-10.11-1.35-26.93c-3.15-15.53-11.71-40.21-34.62-69.59l0.83-0.64
						c23.07,29.58,31.68,54.45,34.84,70.1C217.24,210.26,215.16,220.43,215.14,220.53z"/>
				</g>
			</g>
			<g>
				<g>
					<g>
						<path class="st4" d="M182.22,128.3c0,0-17.61-10.53-14.79-17.44C170.26,103.94,182.06,121.21,182.22,128.3z"/>
					</g>
				</g>
				<g>
					<g>
						<g>
							<path class="st4" d="M189.19,138.6c0,0-4.05-20.12,2.97-22.68C199.17,113.37,194.33,133.71,189.19,138.6z"/>
						</g>
					</g>
					<g>
						<g>
							<path class="st4" d="M190.33,140.22c0,0-20.49,1.07-22-6.24C166.82,126.66,186.24,134.42,190.33,140.22z"/>
						</g>
					</g>
				</g>
				<g>
					<g>
						<g>
							<path class="st4" d="M197.94,152.77c0,0-4.05-20.12,2.97-22.68C207.92,127.53,203.08,147.88,197.94,152.77z"/>
						</g>
					</g>
					<g>
						<g>
							<path class="st4" d="M199.08,154.38c0,0-20.49,1.07-22-6.24C175.57,140.83,195,148.58,199.08,154.38z"/>
						</g>
					</g>
				</g>
				<g>
					<g>
						<g>
							<path class="st4" d="M205.29,167.92c0,0-4.05-20.12,2.97-22.68C215.27,142.69,210.43,163.03,205.29,167.92z"/>
						</g>
					</g>
					<g>
						<g>
							<path class="st4" d="M206.43,169.54c0,0-20.49,1.07-22-6.24C182.92,155.98,202.34,163.74,206.43,169.54z"/>
						</g>
					</g>
				</g>
				<g>
					<g>
						<g>
							<path class="st4" d="M210.52,182.34c0,0-1.19-20.49,6.12-22.04C223.94,158.75,216.29,178.22,210.52,182.34z"/>
						</g>
					</g>
					<g>
						<g>
							<path class="st4" d="M211.43,184.1c0,0-20.44-1.81-20.91-9.26C190.05,167.38,208.19,177.78,211.43,184.1z"/>
						</g>
					</g>
				</g>
			</g>
		</g>
		<g class="st1">
			<g>
				<path class="st3" d="M230.28,387.78c0,0-24.32-41.04-68.46-36.85c-30.08,2.85-65.77-0.25-81.15-15.25
					c19.83,38.25,35.62,57.29,74.92,68.27C194.89,414.94,230.28,387.78,230.28,387.78z"/>
			</g>
			<g>
				<g>
					<path class="st4" d="M230.28,388.45c-0.09,0-0.19-0.02-0.28-0.06c-0.25-0.11-25.41-11.36-72.75-11.38
						c-47.88-0.02-65.34-27.55-65.51-27.82c-0.19-0.31-0.09-0.72,0.22-0.91c0.31-0.19,0.72-0.09,0.91,0.22
						c0.17,0.27,17.29,27.17,64.38,27.19c47.66,0.02,73.05,11.39,73.3,11.5c0.33,0.15,0.48,0.55,0.33,0.88
						C230.77,388.3,230.53,388.45,230.28,388.45z"/>
				</g>
				<g>
					<path class="st4" d="M106.79,374.59c-0.27,0-0.52-0.16-0.62-0.42c-0.13-0.34,0.04-0.72,0.38-0.86l12.29-4.72
						c0.34-0.13,0.72,0.04,0.86,0.38c0.13,0.34-0.04,0.72-0.38,0.86l-12.29,4.72C106.95,374.58,106.87,374.59,106.79,374.59z"/>
				</g>
				<g>
					<path class="st4" d="M134.77,374.75c-0.24,0-0.47-0.13-0.59-0.36l-10.65-20.38c-0.17-0.32-0.04-0.72,0.28-0.89
						c0.33-0.17,0.72-0.04,0.89,0.28l10.65,20.38c0.17,0.32,0.04,0.72-0.28,0.89C134.98,374.73,134.87,374.75,134.77,374.75z"/>
				</g>
				<g>
					<path class="st4" d="M134.69,393.73c-0.2,0-0.4-0.09-0.53-0.27c-0.22-0.29-0.16-0.71,0.14-0.93l22.56-16.73
						c0.29-0.22,0.71-0.16,0.93,0.14c0.22,0.29,0.16,0.71-0.14,0.93l-22.56,16.73C134.97,393.69,134.83,393.73,134.69,393.73z"/>
				</g>
				<g>
					<path class="st4" d="M171.29,377.34c-0.21,0-0.42-0.1-0.54-0.28l-16.15-23.28c-0.21-0.3-0.13-0.71,0.17-0.92
						c0.3-0.21,0.71-0.13,0.92,0.17l16.14,23.28c0.21,0.3,0.13,0.71-0.17,0.92C171.55,377.3,171.42,377.34,171.29,377.34z"/>
				</g>
				<g>
					<path class="st4" d="M161.33,401.73c-0.19,0-0.39-0.08-0.52-0.25c-0.23-0.29-0.18-0.7,0.1-0.93l28.54-22.81
						c0.29-0.23,0.7-0.18,0.93,0.1c0.23,0.29,0.18,0.7-0.1,0.93l-28.54,22.81C161.62,401.68,161.48,401.73,161.33,401.73z"/>
				</g>
				<g>
					<path class="st4" d="M200.02,380.38c-0.23,0-0.45-0.12-0.57-0.32l-14.1-23.74c-0.19-0.31-0.08-0.72,0.23-0.91
						c0.31-0.19,0.72-0.08,0.91,0.23l14.1,23.74c0.19,0.31,0.08,0.72-0.23,0.91C200.25,380.35,200.13,380.38,200.02,380.38z"/>
				</g>
				<g>
					<path class="st4" d="M195,400.53c-0.18,0-0.36-0.07-0.49-0.22c-0.24-0.27-0.22-0.69,0.05-0.94l19.16-17.23
						c0.27-0.24,0.69-0.22,0.94,0.05c0.24,0.27,0.22,0.69-0.05,0.94l-19.16,17.23C195.32,400.48,195.16,400.53,195,400.53z"/>
				</g>
			</g>
		</g>
		<g class="st1">
			<g>
				<g>
					<path class="st5" d="M291.83,157.43c0,0-3.93,25.17,11.01,38.15c14.94,12.98,8.9,24.52-13.22,26.44
						c-22.12,1.92-23.33-31.21-21.87-43.51C269.2,166.21,291.83,157.43,291.83,157.43z"/>
				</g>
				<g>
					<path class="st5" d="M288.9,103.51c0,0,31.89,10.47,10.32,56.42C287.13,155.49,288.9,103.51,288.9,103.51z"/>
				</g>
				<g>
					<path class="st5" d="M253.58,148.11c0,0,29.98-4.03,45.5-29.43c1.71-11.78-11.6-22.07-31.94-21.1
						c-20.34,0.97-34.14,21.55-37.52,43.09c-3.39,21.55-18.75,41.14-29.4,51.07c-10.65,9.93-11.12,45.23,30.52,34.34
						c41.64-10.89,19.35-69.7,19.35-69.7S247.99,149.31,253.58,148.11z"/>
				</g>
				<g>
					<path class="st6" d="M217.99,207.47c0,0-33.89,14.8-40.38,22.73c42.37,75.53,27.01,135.42,21.57,175.33
						c97.36,11.54,143.94,14.02,143.94,14.02s-25.38-84.56-14.8-107.63c10.58-23.08,27.4-30.77,15.86-53.84
						c-11.54-23.08-15.38-45.91-15.38-45.91s-12.76-5.31-27.53-6.62C286.5,204.23,217.99,207.47,217.99,207.47z"/>
				</g>
				<g>
					<path class="st6" d="M326.86,272.64c-17.34-4.33-36.41,10.4-55.49,5.2c-16.47-4.34-31.21-0.87-39.88,13
						c-8.56,12.51-16.62,24.51-25.31,36.4c0.66,14.89-0.26,28.65-1.72,41.26c13.37-15.59,31.27-27.22,51.6-33.55
						c10.1,6.98,19.3,15.32,30.43,20.76c16.35-7.77,29.17-20.07,39.57-34.13c0.37-3.84,1.1-7.12,2.27-9.67
						c6-13.1,14.02-21.24,17.72-30.06C340.11,277.21,333.59,273.91,326.86,272.64z"/>
				</g>
				<g>
					<path class="st7" d="M249.72,152.83c0,0,3.29,23.77-8.92,37.71c-5.09,5.81-10.22,13.52-22.81,16.92
						c12.59,12.36,33.2,20.94,54.99,18.04c21.79-2.91,29.02-19.96,28.29-19.96c-0.73,0-12.83-0.97-18.16-8.72
						c-5.33-7.75,0-21.06,0-21.06L249.72,152.83z"/>
				</g>
				<g>
					<g>
						<path class="st5" d="M270.48,216.17c-19.92,0-35.69-18.91-35.86-19.11l0.67-0.55c0.18,0.22,17.96,21.51,39.37,18.5
							c7.93-6.33,9.85-17.61,9.87-17.72l0.86,0.14c-0.02,0.12-2,11.8-10.27,18.33l-0.09,0.07l-0.12,0.02
							C273.41,216.07,271.93,216.17,270.48,216.17z"/>
					</g>
				</g>
				<g>
					<g>
						<path class="st5" d="M278.9,218.09c0,1.71-1.39,3.1-3.1,3.1c-1.71,0-3.1-1.39-3.1-3.1s1.39-3.1,3.1-3.1
							C277.51,214.99,278.9,216.38,278.9,218.09z"/>
					</g>
				</g>
				<g>
					<path class="st8" d="M280.82,185.91c0.41-5.44,2.29-10.15,2.29-10.15l-33.39-22.93c0,0,1.71,12.39-1.93,24.52
						C257.51,184.26,269.4,188.07,280.82,185.91z"/>
				</g>
				<g>
					<g>
						<path class="st7" d="M301.88,132.13c0.11-4.32-0.41-9.48-2.8-13.45c-15.51,25.4-45.01,22.3-45.01,22.3
							c-5.59,1.2-3.98,15.39-3.98,15.39s0.72,1.4,2.18,4.33c3.69,7.64,11.07,21.33,29.45,22.64c8.35,0,18.34-21.46,18.34-22.91
							C302.15,148.23,301.69,139.57,301.88,132.13z"/>
					</g>
				</g>
				<g>
					<path class="st5" d="M293.97,125.55c0,0-0.16,11.98,9.23,18.49c2.31-11.7-1.96-25.48-4.16-29.61
						C298.79,117.77,296.08,123.36,293.97,125.55z"/>
				</g>
				<g>
					<g>
						<path class="st9" d="M296.06,152.68c-0.27,0-0.56-0.04-0.84-0.12c-2.71-0.77-3.48-4.78-3.51-4.95
							c-0.04-0.2,0.09-0.38,0.29-0.42c0.2-0.04,0.38,0.09,0.42,0.29c0.01,0.04,0.71,3.74,2.99,4.39c0.69,0.2,1.31,0.09,1.85-0.32
							c0.94-0.71,1.59-2.36,1.59-4.01c0-0.2,0.16-0.36,0.36-0.36s0.36,0.16,0.36,0.36c0,1.57-0.58,3.6-1.88,4.58
							C297.21,152.49,296.66,152.68,296.06,152.68z"/>
					</g>
					<g>
						<path class="st9" d="M274.67,151.87c-1.01,0-1.93-0.32-2.7-0.95c-1.18-0.95-1.94-2.62-1.94-4.25c0-0.23,0.19-0.42,0.42-0.42
							s0.42,0.19,0.42,0.42c0,1.39,0.64,2.8,1.63,3.6c0.84,0.68,1.91,0.91,3.09,0.66c3.09-0.66,4.02-4.33,4.03-4.36
							c0.06-0.22,0.28-0.36,0.5-0.31c0.22,0.05,0.36,0.28,0.31,0.5c-0.04,0.17-1.07,4.22-4.67,4.98
							C275.38,151.83,275.02,151.87,274.67,151.87z"/>
					</g>
					<g>
						<path class="st9" d="M286.4,164.64c-2.75,0-5.86-2.08-6.02-2.19c-0.15-0.1-0.19-0.31-0.09-0.46c0.1-0.15,0.31-0.19,0.46-0.09
							c0.05,0.03,4.65,3.12,7.26,1.72c0.77-0.41,1.23-0.93,1.37-1.54c0.23-0.99-0.45-1.94-0.45-1.95c-0.11-0.15-0.07-0.35,0.07-0.46
							c0.15-0.11,0.35-0.07,0.46,0.07c0.04,0.05,0.85,1.19,0.56,2.48c-0.18,0.81-0.75,1.47-1.7,1.98
							C287.74,164.51,287.08,164.64,286.4,164.64z"/>
					</g>
					<g>
						<g>
							<path class="st9" d="M283.01,171.66c-5.54,0-8.78-3.31-8.82-3.35c-0.14-0.14-0.13-0.37,0.01-0.51
								c0.14-0.14,0.37-0.13,0.51,0.01c0.04,0.04,4.35,4.43,11.54,2.74c0.19-0.05,0.39,0.08,0.43,0.27
								c0.04,0.19-0.08,0.39-0.27,0.43C285.21,171.54,284.07,171.66,283.01,171.66z"/>
						</g>
						<g>
							<path class="st9" d="M279.77,174.25c-2.65,0-4.71-1.93-4.81-2.03c-0.14-0.14-0.15-0.37-0.01-0.51
								c0.14-0.14,0.37-0.15,0.51-0.01c0.02,0.02,2.35,2.2,5.04,1.77c0.19-0.03,0.38,0.1,0.41,0.3c0.03,0.2-0.1,0.38-0.3,0.41
								C280.33,174.23,280.05,174.25,279.77,174.25z"/>
						</g>
					</g>
					<g>
						<path class="st5" d="M268.66,143.03c0,0,4.71-2.5,8.07-1.86c3.37,0.65,3.45,1.77,4.79,0.56c1.34-1.21-2.29-2.76-5.27-2.72
							C273.28,139.06,269.56,141.48,268.66,143.03z"/>
					</g>
					<g>
						<path class="st5" d="M300.7,145.88c0,0-2.86-3-5.21-2.58c-2.34,0.42-2.54,1.6-3.29,0.22c-0.75-1.38,1.88-2.73,3.87-2.46
							C298.07,141.33,300.28,144.17,300.7,145.88z"/>
					</g>
				</g>
				<g>
					<path class="st6" d="M328.8,212.16c0,0,10.19,3.37,21.56,26.2s9.05,23.51,33.28,74.85c0.92,11.68-20.36,38.77-30.81,34.09
						c-10.46-4.69-23.31-37.84-26.92-48.39C322.31,288.36,328.8,212.16,328.8,212.16z"/>
				</g>
				<g>
					<path class="st6" d="M177.61,230.19c0,0-43.63,91.22-36.78,114.65s35.7,21.99,45.07,1.8c9.37-20.19,22.41-61.33,22.41-61.33
						C211.5,265.53,191.67,227.67,177.61,230.19z"/>
				</g>
				<g>
					<path class="st3" d="M328.48,215.42c-0.7,2.03-1.3,4.09-1.79,6.18c-0.26,1.04-0.47,2.09-0.7,3.13l-0.56,3.16
						c-0.68,4.22-1.02,8.5-0.96,12.77c-0.06,2.14,0.16,4.27,0.27,6.4c0.31,2.11,0.49,4.25,0.96,6.33c0.22,1.05,0.38,2.11,0.65,3.14
						l0.86,3.09c0.15,0.51,0.25,1.04,0.44,1.55l0.54,1.51l1.07,3.04c-1.78-3.9-3.37-7.96-4.22-12.2l-0.37-1.58
						c-0.12-0.53-0.17-1.07-0.26-1.6l-0.46-3.21c-0.14-2.16-0.39-4.31-0.35-6.47c0.01-4.32,0.34-8.65,1.17-12.89
						C325.59,223.55,326.75,219.36,328.48,215.42z"/>
				</g>
				<g>
					<path class="st3" d="M181.38,230.07c7.74,0.97,15.33,3.94,21.47,8.9c6.13,4.98,10.35,12.22,11.85,19.96
						c0.49,1.91,0.65,3.88,0.95,5.82c0.12,1.96,0.35,3.92,0.32,5.88c0.1,3.92-0.16,7.85-0.65,11.74c-0.47,3.89-1.25,7.74-2.25,11.52
						c-0.26,0.94-0.51,1.89-0.84,2.81c-0.31,0.93-0.59,1.87-0.97,2.77l-0.54,1.37c-0.18,0.45-0.41,0.89-0.62,1.33
						c-0.39,0.9-0.94,1.71-1.45,2.54c1.98-3.37,3.08-7.16,4.01-10.93c0.91-3.78,1.62-7.62,2-11.5c0.38-3.87,0.66-7.76,0.52-11.64
						c0.01-1.94-0.23-3.87-0.35-5.81c-0.3-1.91-0.48-3.85-0.97-5.73c-1.42-7.63-5.52-14.63-11.43-19.63
						c-2.95-2.5-6.32-4.52-9.88-6.07C188.99,231.86,185.24,230.69,181.38,230.07z"/>
				</g>
				<g>
					<path class="st9" d="M279.27,183.09c-1.68-0.16-3.32-0.56-4.94-1.03c-1.6-0.53-3.18-1.14-4.69-1.91
						c-3.02-1.51-5.82-3.46-8.3-5.76c-0.62-0.57-1.18-1.21-1.77-1.82c-0.29-0.31-0.59-0.61-0.87-0.92l-0.79-0.99
						c-0.52-0.67-1.07-1.31-1.56-2l-1.38-2.13l-0.68-1.07l-0.58-1.12l-1.17-2.24c-0.69-1.53-1.27-3.12-1.91-4.67
						c0.71,1.53,1.34,3.08,2.1,4.58l1.21,2.2l0.61,1.1l0.7,1.04l1.4,2.09c0.49,0.68,1.04,1.31,1.56,1.97l0.79,0.98
						c0.28,0.31,0.58,0.6,0.87,0.91c0.59,0.59,1.15,1.22,1.76,1.78c2.43,2.3,5.2,4.23,8.16,5.78
						C272.76,181.39,275.94,182.58,279.27,183.09z"/>
				</g>
				<g>
					<path class="st10" d="M254.15,259.27c0.91-2.23,4.7-5.18,7.26-6.57c2.56-1.39,2.43-2.11,1.2-2.38c-3.33-0.23-8.3,2.8-11.5,5.95
						c1.45-4.46,7.97-6.51,10.01-7.05c2.04-0.54,1.62-2.22-0.45-2.39c-4.13-0.19-8.95,1.65-12.86,5.73c0.33-2.37,3.1-4.29,6.37-5.37
						c3.26-1.08,7.92-0.82,5.62-2.65c-0.68-0.25-1.38-0.44-2.09-0.59c-4.54,1.01-8.96,3.81-12.84,9.31
						c-7.35,11.32-2.17,27.9,8.21,43.21c2.12-3.56,5.82-11.47,4.09-21.1c-1-5.52-2.78-10.47,0.39-14.06
						c3.79-4.29,7.06-6.09,6.22-7.16C262.65,252.72,258.14,255.89,254.15,259.27z"/>
				</g>
				<g>
					<path class="st11" d="M149.85,330.79c0,0,21.99-17.24,46.87-31.88c24.88-14.63,40.74-29.42,40.74-29.42
						s-0.96,15.26,12.26,23.44c-21.39,30.53-33.64,50.5-58.16,67.8c-24.52,17.31-44-2.44-46.89-7.79
						C141.78,347.59,143.72,337.04,149.85,330.79z"/>
				</g>
				<g>
					<path class="st3" d="M339.68,253.27c-4.03-5.71-8.63-8.5-13.34-9.41c-0.7,0.14-1.38,0.32-2.05,0.55
						c-2.3,1.77,2.39,1.57,5.69,2.66c3.3,1.09,6.11,3.01,6.47,5.35c-3.98-4.05-8.85-5.91-13.02-5.76c-2.09,0.15-2.5,1.8-0.43,2.35
						c2.07,0.55,8.65,2.63,10.16,7.04c-3.25-3.13-8.3-6.16-11.65-5.97c-1.25,0.25-1.36,0.96,1.23,2.35
						c2.59,1.39,6.44,4.33,7.38,6.53c-4.05-3.37-8.63-6.53-9.74-5.13c-0.83,1.05,2.48,2.85,6.34,7.11
						c3.23,3.56,0.93,8.33,0.54,13.84c-0.36,5.02,3.39,16.12,4.98,20.57C342.1,280.35,346.84,264.3,339.68,253.27z"/>
				</g>
				<g>
					<path class="st12" d="M339.68,253.27c-17.97-25.48-47.41,6.97-47.41,6.97s-29.44-32.45-47.41-6.97
						c-14.65,22.57,20.49,66.1,47.41,78.6C319.19,319.37,354.33,275.84,339.68,253.27z"/>
				</g>
				<g>
					<g>
						<path class="st13" d="M262.23,249.27c-3.28-0.09-8.3,2.82-11.56,5.78c1.58-4.09,8.09-6.17,10.13-6.72
							c2.04-0.55,1.67-2.07-0.37-2.15c-4.08-0.03-8.89,1.8-12.9,5.63c0.41-2.16,3.21-3.99,6.47-5.08c3.26-1.09,7.85-1.02,5.64-2.59
							c-5.75-1.76-13.12,0.09-16.16,2.56c-3.03,2.47-2.77,5.21-3.07,15c-0.29,9.79-5.72,13.76-5.72,13.76
							c-0.22,0.13-0.43,0.26-0.65,0.39l8.35,23.07c3.97-6.66,6.29-11.08,6.29-11.08s7.57-9.87,7.29-15.7
							c-0.25-5.05-2.38-9.38,0.87-12.74c3.89-4.01,7.18-5.75,6.39-6.7c-1.05-1.26-5.62,1.76-9.67,4.96c0.98-2.05,4.82-4.85,7.4-6.19
							S263.44,249.47,262.23,249.27z"/>
					</g>
				</g>
				<g>
					<g>
						<g>
							<path class="st13" d="M322.19,249.34c3.28-0.09,8.3,2.82,11.56,5.78c-1.58-4.09-8.09-6.17-10.13-6.72
								c-2.04-0.55-1.67-2.07,0.37-2.15c4.08-0.03,8.89,1.8,12.9,5.63c-0.41-2.16-3.21-3.99-6.47-5.08
								c-3.26-1.09-7.85-1.02-5.64-2.59c5.75-1.76,13.12,0.09,16.16,2.56s2.77,5.21,3.07,15c0.29,9.79,5.72,13.76,5.72,13.76
								c0.22,0.13,0.43,0.26,0.65,0.39l-8.35,23.07c-3.97-6.66-6.29-11.08-6.29-11.08s-7.57-9.87-7.29-15.7
								c0.25-5.05,2.38-9.38-0.87-12.74c-3.89-4.01-7.18-5.75-6.39-6.7c1.05-1.26,5.62,1.76,9.67,4.96
								c-0.98-2.05-4.82-4.85-7.4-6.19C320.88,250.18,320.97,249.54,322.19,249.34z"/>
						</g>
					</g>
				</g>
				<g>
					<path class="st11" d="M350.03,273.12c0,0,1.03,13.28-12.31,20.67c5.42,20.52,0.9,39.12,15.06,52.82
						c13.19,12.77,49.43-4.84,31.28-37.05C372.96,289.88,350.03,273.12,350.03,273.12z"/>
				</g>
				<g>
					<g>
						<path class="st14" d="M273.62,308.16c0,0,23.74-23.95,24.53-30.77c0.98-8.47-8.83-9.04-8.59-1.32
							c0.2,6.33,24.61,31.64,24.61,31.64l-8.11,6.94c0,0-16.47-22.11-21.54-31.04c-5.07-8.93,2.25-16.69,7.74-16.68
							c9.34,0.02,14.28,9.34,10.11,17.41c-4.16,8.08-21.36,30.32-21.36,30.32L273.62,308.16z"/>
					</g>
				</g>
			</g>
			<g>
				<path class="st5" d="M268.52,138.38c0,0-6.94-0.63-10.26,10.68c-3.32,11.31-1.06,44.26-37.09,57.41
					c6.89-15.32,15.7-48.05,17.44-57.41C240.34,139.7,248.29,124.92,268.52,138.38z"/>
			</g>
		</g>
		<g class="st1">
			<g>
				<path class="st2" d="M279.26,431.28c-0.07-0.15-6.8-15.65-27.38-35.23c-19-18.08-54.03-43.43-112.98-61.54l0.51-1.66
					c59.34,18.23,94.61,43.79,113.75,62.03c20.79,19.81,27.62,35.57,27.69,35.72L279.26,431.28z"/>
			</g>
			<g>
				<g>
					<path class="st2" d="M148.72,336.74c0,0-33.88,2.43-36.6-9.63C109.38,315.05,141.77,327.27,148.72,336.74z"/>
				</g>
				<g>
					<g>
						<path class="st2" d="M167.93,344.1c0,0-24.58-23.44-17.49-33.57C157.53,300.41,170.27,332.59,167.93,344.1z"/>
					</g>
					<g>
						<path class="st2" d="M171.02,345.21c0,0-26.77,20.9-35.76,12.41C126.27,349.12,159.97,341.22,171.02,345.21z"/>
					</g>
				</g>
				<g>
					<g>
						<path class="st2" d="M193.24,355.01c0,0-24.58-23.44-17.49-33.57C182.84,311.32,195.58,343.5,193.24,355.01z"/>
					</g>
					<g>
						<path class="st2" d="M196.33,356.12c0,0-26.77,20.9-35.76,12.41C151.58,360.03,185.28,352.13,196.33,356.12z"/>
					</g>
				</g>
				<g>
					<g>
						<path class="st2" d="M217.59,368.6c0,0-24.58-23.44-17.49-33.57C207.19,324.9,219.92,357.09,217.59,368.6z"/>
					</g>
					<g>
						<path class="st2" d="M220.67,369.7c0,0-26.77,20.9-35.76,12.41C175.93,373.62,209.63,365.71,220.67,369.7z"/>
					</g>
				</g>
				<g>
					<g>
						<path class="st2" d="M238.36,383.19c0,0-21.05-26.65-12.61-35.69C234.18,338.46,242.28,372.12,238.36,383.19z"/>
					</g>
					<g>
						<path class="st2" d="M241.26,384.71c0,0-29.44,16.94-37.14,7.27C196.4,382.32,230.88,379.22,241.26,384.71z"/>
					</g>
				</g>
			</g>
		</g>
	</g>
	<g class="st15">
		<g class="st16">
			<g>
				<text transform="matrix(1 0 0 1 148.6323 454.6918)" class="st17 st18 st19">Breast Cancer</text>
			</g>
			<g>
				<text transform="matrix(1 0 0 1 155.2397 415.2054)" class="st20 st21 st22 st23">International Day against</text>
			</g>
		</g>
		<g class="st16">
			<rect x="152.86" y="420.71" class="st20" width="194.27" height="0.85"/>
		</g>
		<g class="st16">
			<rect x="152.86" y="401.86" class="st20" width="194.27" height="0.85"/>
		</g>
	</g>
</g>
</svg>
